<svg enable-background="new 0 0 327.9 104.6" viewBox="0 0 327.9 104.6" xmlns="http://www.w3.org/2000/svg"><g fill="#fff"><path d="m20.5 65.4c.7 1.3 2.1 1.6 3.3.7l20.5-15.3c1.1-.8 1.3-2.4.2-3.4l-14.4-14.3c-1-1-3-2.1-4.4-2.4l-21.3-4.7c1.1 4.4 1.9 9 2.4 13.6z"/><path d="m9.9 74.1-4.3-.8c-.6 2.7-1.2 5.3-1.9 7.8l6.6-4.9c1.2-.9 1-1.8-.4-2.1z"/><path d="m16 68-8.4-16c0 5.4-.4 10.9-1.1 16.2l8.3 1.5c1.3.3 1.9-.5 1.2-1.7z"/><path d="m22.3 25.2-19.5-19.5c-2.4 4-2.5 10 .6 16.8l18.1 3.9c1.5.4 1.8-.2.8-1.2z"/><path d="m35.9 29.6 26.2 5.7c1.4.3 3.5-.1 4.6-1l.9-.7c-14.2-10.9-28.5-20.8-44.3-29.5-6.8-4-12.8-4.2-16.8-2l25.1 25.1c1 1 3 2.1 4.3 2.4z"/><path d="m58.7 37.8-18.5-4c-1.4-.3-1.7.3-.7 1.3l9.3 9.3c1 1 2.8 1.1 3.9.3l6.4-4.8c1.2-.8 1-1.8-.4-2.1z"/><path d="m28.1 79.6 7.4 13.8c5.8-3.6 11.5-7.4 17.1-11.4l-23.2-4.3c-1.4-.2-2 .6-1.3 1.9z"/><path d="m51.9 54.9c-1-1-2.8-1.1-3.9-.3l-20.9 15.5c-1.1.8-.9 1.8.5 2l30.9 5.7c3.2-2.3 6.3-4.7 9.4-7.1z"/><path d="m65.8 41.4-9.5 7c-1.1.8-1.3 2.4-.2 3.4l15.9 15.9c10-7.4 11.3-17.5 4.8-25.9l-6.4-1.4c-1.4-.3-3.4.1-4.6 1z"/><path d="m19.9 76c-.3-.1-1.4.6-2.6 1.4l-16.1 12c-1.6 12.2 8.5 19.1 22.1 11.1 2.6-1.4 5.2-2.9 7.7-4.4l-9.4-17.7c-.7-1.3-1.5-2.4-1.7-2.4z"/><path d="m151.2 47.7h9.6v18.8c-5.2 3.8-13.1 6.4-19.9 6.4-14.8 0-26.1-10.8-26.1-25 0-14.1 11.5-24.9 26.7-24.9 7.3 0 14.7 2.8 19.7 7.1l-6.2 7.9c-3.6-3.4-8.7-5.5-13.4-5.5-8.7 0-15.4 6.7-15.4 15.3 0 8.7 6.8 15.3 15.5 15.3 2.9 0 6.4-1 9.6-2.7v-12.7z"/><path d="m219.6 47.9c0 14.1-11.3 25-26.3 25s-26.3-10.8-26.3-25c0-14.3 11.3-24.9 26.3-24.9s26.3 10.7 26.3 24.9zm-41.3 0c0 8.6 6.9 15.3 15.1 15.3s14.8-6.7 14.8-15.3-6.7-15.2-14.8-15.2c-8.3.1-15.1 6.6-15.1 15.2z"/><path d="m258.5 47.7h9.6v18.8c-5.2 3.8-13.1 6.4-19.9 6.4-14.8 0-26.1-10.8-26.1-25 0-14.1 11.5-24.9 26.7-24.9 7.3 0 14.7 2.8 19.7 7.1l-6.2 7.9c-3.6-3.4-8.7-5.5-13.4-5.5-8.7 0-15.4 6.7-15.4 15.3 0 8.7 6.8 15.3 15.5 15.3 2.9 0 6.4-1 9.6-2.7v-12.7z"/><path d="m326.9 47.9c0 14.1-11.3 25-26.3 25s-26.3-10.8-26.3-25c0-14.3 11.3-24.9 26.3-24.9s26.3 10.7 26.3 24.9zm-41.3 0c0 8.6 6.9 15.3 15.1 15.3s14.8-6.7 14.8-15.3-6.7-15.2-14.8-15.2c-8.3.1-15.1 6.6-15.1 15.2z"/></g></svg>